<svg width="496" height="412" viewBox="0 0 496 412" fill="none" xmlns="http://www.w3.org/2000/svg">
<g filter="url(#filter0_dd_11798_37510)">
<g clip-path="url(#clip0_11798_37510)">
<rect x="6" y="6" width="483.333" height="400" rx="10" fill="white"/>
<mask id="path-3-inside-1_11798_37510" fill="white">
<path d="M6 24H489.333V52H6V24Z"/>
</mask>
<path d="M489.333 52V51H6V52V53H489.333V52Z" fill="#ADADAD" mask="url(#path-3-inside-1_11798_37510)"/>
<path d="M35.586 27.757C37.03 27.757 38.2777 28.0293 39.329 28.574C40.393 29.106 41.2037 29.8723 41.761 30.873C42.331 31.8737 42.616 33.0517 42.616 34.407C42.616 35.7623 42.331 36.9403 41.761 37.941C41.2037 38.929 40.393 39.689 39.329 40.221C38.2777 40.7403 37.03 41 35.586 41H31.463V27.757H35.586ZM35.586 39.575C37.296 39.575 38.6007 39.1253 39.5 38.226C40.3993 37.314 40.849 36.041 40.849 34.407C40.849 32.7603 40.393 31.4747 39.481 30.55C38.5817 29.6253 37.2833 29.163 35.586 29.163H33.192V39.575H35.586ZM54.3016 35.395C54.3016 35.7243 54.2826 36.0727 54.2446 36.44H45.9226C45.9859 37.466 46.3343 38.2703 46.9676 38.853C47.6136 39.423 48.3926 39.708 49.3046 39.708C50.0519 39.708 50.6726 39.537 51.1666 39.195C51.6733 38.8403 52.0279 38.3717 52.2306 37.789H54.0926C53.8139 38.7897 53.2566 39.6067 52.4206 40.24C51.5846 40.8607 50.5459 41.171 49.3046 41.171C48.3166 41.171 47.4299 40.9493 46.6446 40.506C45.8719 40.0627 45.2639 39.4357 44.8206 38.625C44.3773 37.8017 44.1556 36.8517 44.1556 35.775C44.1556 34.6983 44.3709 33.7547 44.8016 32.944C45.2323 32.1333 45.8339 31.5127 46.6066 31.082C47.3919 30.6387 48.2913 30.417 49.3046 30.417C50.2926 30.417 51.1666 30.6323 51.9266 31.063C52.6866 31.4937 53.2693 32.089 53.6746 32.849C54.0926 33.5963 54.3016 34.445 54.3016 35.395ZM52.5156 35.034C52.5156 34.3753 52.3699 33.8117 52.0786 33.343C51.7873 32.8617 51.3883 32.5007 50.8816 32.26C50.3876 32.0067 49.8366 31.88 49.2286 31.88C48.3546 31.88 47.6073 32.1587 46.9866 32.716C46.3786 33.2733 46.0303 34.046 45.9416 35.034H52.5156ZM69.0098 30.398C69.8205 30.398 70.5425 30.569 71.1758 30.911C71.8092 31.2403 72.3095 31.7407 72.6768 32.412C73.0442 33.0833 73.2278 33.9003 73.2278 34.863V41H71.5178V35.11C71.5178 34.0713 71.2582 33.2797 70.7388 32.735C70.2322 32.1777 69.5418 31.899 68.6678 31.899C67.7685 31.899 67.0528 32.1903 66.5208 32.773C65.9888 33.343 65.7228 34.1727 65.7228 35.262V41H64.0128V35.11C64.0128 34.0713 63.7532 33.2797 63.2338 32.735C62.7272 32.1777 62.0368 31.899 61.1628 31.899C60.2635 31.899 59.5478 32.1903 59.0158 32.773C58.4838 33.343 58.2178 34.1727 58.2178 35.262V41H56.4888V30.588H58.2178V32.089C58.5598 31.5443 59.0158 31.1263 59.5858 30.835C60.1685 30.5437 60.8082 30.398 61.5048 30.398C62.3788 30.398 63.1515 30.5943 63.8228 30.987C64.4942 31.3797 64.9945 31.956 65.3238 32.716C65.6152 31.9813 66.0965 31.4113 66.7678 31.006C67.4392 30.6007 68.1865 30.398 69.0098 30.398ZM80.51 41.171C79.5347 41.171 78.648 40.9493 77.85 40.506C77.0647 40.0627 76.444 39.4357 75.988 38.625C75.5447 37.8017 75.323 36.8517 75.323 35.775C75.323 34.711 75.551 33.7737 76.007 32.963C76.4757 32.1397 77.109 31.5127 77.907 31.082C78.705 30.6387 79.598 30.417 80.586 30.417C81.574 30.417 82.467 30.6387 83.265 31.082C84.063 31.5127 84.69 32.1333 85.146 32.944C85.6147 33.7547 85.849 34.6983 85.849 35.775C85.849 36.8517 85.6083 37.8017 85.127 38.625C84.6583 39.4357 84.0187 40.0627 83.208 40.506C82.3973 40.9493 81.498 41.171 80.51 41.171ZM80.51 39.651C81.1307 39.651 81.7133 39.5053 82.258 39.214C82.8027 38.9227 83.2397 38.4857 83.569 37.903C83.911 37.3203 84.082 36.611 84.082 35.775C84.082 34.939 83.9173 34.2297 83.588 33.647C83.2587 33.0643 82.828 32.6337 82.296 32.355C81.764 32.0637 81.1877 31.918 80.567 31.918C79.9337 31.918 79.351 32.0637 78.819 32.355C78.2997 32.6337 77.8817 33.0643 77.565 33.647C77.2483 34.2297 77.09 34.939 77.09 35.775C77.09 36.6237 77.242 37.3393 77.546 37.922C77.8627 38.5047 78.2807 38.9417 78.8 39.233C79.3193 39.5117 79.8893 39.651 80.51 39.651ZM92.3213 30.417C93.2207 30.417 94.006 30.6133 94.6773 31.006C95.3613 31.3987 95.868 31.8927 96.1973 32.488V30.588H97.9453V41.228C97.9453 42.178 97.7427 43.0203 97.3373 43.755C96.932 44.5023 96.3493 45.085 95.5893 45.503C94.842 45.921 93.968 46.13 92.9673 46.13C91.5993 46.13 90.4593 45.807 89.5473 45.161C88.6353 44.515 88.097 43.6347 87.9323 42.52H89.6423C89.8323 43.1533 90.225 43.66 90.8203 44.04C91.4157 44.4327 92.1313 44.629 92.9673 44.629C93.9173 44.629 94.69 44.3313 95.2853 43.736C95.8933 43.1407 96.1973 42.3047 96.1973 41.228V39.043C95.8553 39.651 95.3487 40.1577 94.6773 40.563C94.006 40.9683 93.2207 41.171 92.3213 41.171C91.3967 41.171 90.5543 40.943 89.7943 40.487C89.047 40.031 88.458 39.3913 88.0273 38.568C87.5967 37.7447 87.3813 36.8073 87.3813 35.756C87.3813 34.692 87.5967 33.761 88.0273 32.963C88.458 32.1523 89.047 31.5253 89.7943 31.082C90.5543 30.6387 91.3967 30.417 92.3213 30.417ZM96.1973 35.775C96.1973 34.9897 96.039 34.3057 95.7223 33.723C95.4057 33.1403 94.975 32.697 94.4303 32.393C93.8983 32.0763 93.3093 31.918 92.6633 31.918C92.0173 31.918 91.4283 32.07 90.8963 32.374C90.3643 32.678 89.94 33.1213 89.6233 33.704C89.3067 34.2867 89.1483 34.9707 89.1483 35.756C89.1483 36.554 89.3067 37.2507 89.6233 37.846C89.94 38.4287 90.3643 38.8783 90.8963 39.195C91.4283 39.499 92.0173 39.651 92.6633 39.651C93.3093 39.651 93.8983 39.499 94.4303 39.195C94.975 38.8783 95.4057 38.4287 95.7223 37.846C96.039 37.2507 96.1973 36.5603 96.1973 35.775ZM102.501 32.279C102.805 31.6837 103.236 31.2213 103.793 30.892C104.363 30.5627 105.054 30.398 105.864 30.398V32.184H105.408C103.47 32.184 102.501 33.2353 102.501 35.338V41H100.772V30.588H102.501V32.279ZM107.119 35.756C107.119 34.692 107.334 33.761 107.765 32.963C108.196 32.1523 108.785 31.5253 109.532 31.082C110.292 30.6387 111.134 30.417 112.059 30.417C112.971 30.417 113.763 30.6133 114.434 31.006C115.105 31.3987 115.606 31.8927 115.935 32.488V30.588H117.683V41H115.935V39.062C115.593 39.67 115.08 40.1767 114.396 40.582C113.725 40.9747 112.939 41.171 112.04 41.171C111.115 41.171 110.279 40.943 109.532 40.487C108.785 40.031 108.196 39.3913 107.765 38.568C107.334 37.7447 107.119 36.8073 107.119 35.756ZM115.935 35.775C115.935 34.9897 115.777 34.3057 115.46 33.723C115.143 33.1403 114.713 32.697 114.168 32.393C113.636 32.0763 113.047 31.918 112.401 31.918C111.755 31.918 111.166 32.07 110.634 32.374C110.102 32.678 109.678 33.1213 109.361 33.704C109.044 34.2867 108.886 34.9707 108.886 35.756C108.886 36.554 109.044 37.2507 109.361 37.846C109.678 38.4287 110.102 38.8783 110.634 39.195C111.166 39.499 111.755 39.651 112.401 39.651C113.047 39.651 113.636 39.499 114.168 39.195C114.713 38.8783 115.143 38.4287 115.46 37.846C115.777 37.2507 115.935 36.5603 115.935 35.775ZM122.239 32.507C122.581 31.9117 123.088 31.4177 123.759 31.025C124.443 30.6197 125.235 30.417 126.134 30.417C127.059 30.417 127.895 30.6387 128.642 31.082C129.402 31.5253 129.997 32.1523 130.428 32.963C130.859 33.761 131.074 34.692 131.074 35.756C131.074 36.8073 130.859 37.7447 130.428 38.568C129.997 39.3913 129.402 40.031 128.642 40.487C127.895 40.943 127.059 41.171 126.134 41.171C125.247 41.171 124.462 40.9747 123.778 40.582C123.107 40.1767 122.594 39.6763 122.239 39.081V45.94H120.51V30.588H122.239V32.507ZM129.307 35.756C129.307 34.9707 129.149 34.2867 128.832 33.704C128.515 33.1213 128.085 32.678 127.54 32.374C127.008 32.07 126.419 31.918 125.773 31.918C125.14 31.918 124.551 32.0763 124.006 32.393C123.474 32.697 123.043 33.1467 122.714 33.742C122.397 34.3247 122.239 35.0023 122.239 35.775C122.239 36.5603 122.397 37.2507 122.714 37.846C123.043 38.4287 123.474 38.8783 124.006 39.195C124.551 39.499 125.14 39.651 125.773 39.651C126.419 39.651 127.008 39.499 127.54 39.195C128.085 38.8783 128.515 38.4287 128.832 37.846C129.149 37.2507 129.307 36.554 129.307 35.756ZM138.423 30.398C139.208 30.398 139.917 30.569 140.551 30.911C141.184 31.2403 141.678 31.7407 142.033 32.412C142.4 33.0833 142.584 33.9003 142.584 34.863V41H140.874V35.11C140.874 34.0713 140.614 33.2797 140.095 32.735C139.575 32.1777 138.866 31.899 137.967 31.899C137.055 31.899 136.326 32.184 135.782 32.754C135.25 33.324 134.984 34.1537 134.984 35.243V41H133.255V26.94H134.984V32.07C135.326 31.538 135.794 31.1263 136.39 30.835C136.998 30.5437 137.675 30.398 138.423 30.398ZM146.206 28.897C145.877 28.897 145.598 28.783 145.37 28.555C145.142 28.327 145.028 28.0483 145.028 27.719C145.028 27.3897 145.142 27.111 145.37 26.883C145.598 26.655 145.877 26.541 146.206 26.541C146.523 26.541 146.789 26.655 147.004 26.883C147.232 27.111 147.346 27.3897 147.346 27.719C147.346 28.0483 147.232 28.327 147.004 28.555C146.789 28.783 146.523 28.897 146.206 28.897ZM147.042 30.588V41H145.313V30.588H147.042ZM149.248 35.775C149.248 34.6983 149.463 33.761 149.894 32.963C150.325 32.1523 150.92 31.5253 151.68 31.082C152.453 30.6387 153.333 30.417 154.321 30.417C155.6 30.417 156.652 30.7273 157.475 31.348C158.311 31.9687 158.862 32.83 159.128 33.932H157.266C157.089 33.2987 156.74 32.7983 156.221 32.431C155.714 32.0637 155.081 31.88 154.321 31.88C153.333 31.88 152.535 32.222 151.927 32.906C151.319 33.5773 151.015 34.5337 151.015 35.775C151.015 37.029 151.319 37.998 151.927 38.682C152.535 39.366 153.333 39.708 154.321 39.708C155.081 39.708 155.714 39.5307 156.221 39.176C156.728 38.8213 157.076 38.3147 157.266 37.656H159.128C158.849 38.72 158.292 39.575 157.456 40.221C156.62 40.8543 155.575 41.171 154.321 41.171C153.333 41.171 152.453 40.9493 151.68 40.506C150.92 40.0627 150.325 39.4357 149.894 38.625C149.463 37.8143 149.248 36.8643 149.248 35.775ZM165.026 41.171C164.228 41.171 163.512 41.038 162.879 40.772C162.246 40.4933 161.745 40.1133 161.378 39.632C161.011 39.138 160.808 38.5743 160.77 37.941H162.556C162.607 38.4603 162.847 38.8847 163.278 39.214C163.721 39.5433 164.298 39.708 165.007 39.708C165.666 39.708 166.185 39.5623 166.565 39.271C166.945 38.9797 167.135 38.6123 167.135 38.169C167.135 37.713 166.932 37.3773 166.527 37.162C166.122 36.934 165.495 36.7123 164.646 36.497C163.873 36.2943 163.24 36.0917 162.746 35.889C162.265 35.6737 161.847 35.3633 161.492 34.958C161.15 34.54 160.979 33.9953 160.979 33.324C160.979 32.792 161.137 32.3043 161.454 31.861C161.771 31.4177 162.22 31.0693 162.803 30.816C163.386 30.55 164.051 30.417 164.798 30.417C165.951 30.417 166.882 30.7083 167.591 31.291C168.3 31.8737 168.68 32.6717 168.731 33.685H167.002C166.964 33.1403 166.742 32.7033 166.337 32.374C165.944 32.0447 165.412 31.88 164.741 31.88C164.12 31.88 163.626 32.013 163.259 32.279C162.892 32.545 162.708 32.8933 162.708 33.324C162.708 33.666 162.816 33.951 163.031 34.179C163.259 34.3943 163.538 34.5717 163.867 34.711C164.209 34.8377 164.678 34.9833 165.273 35.148C166.02 35.3507 166.628 35.5533 167.097 35.756C167.566 35.946 167.965 36.2373 168.294 36.63C168.636 37.0227 168.813 37.5357 168.826 38.169C168.826 38.739 168.668 39.252 168.351 39.708C168.034 40.164 167.585 40.525 167.002 40.791C166.432 41.0443 165.773 41.171 165.026 41.171Z" fill="#5C5C5C"/>
<rect width="485" height="86" transform="translate(4.83203 320.5)" fill="url(#paint0_linear_11798_37510)"/>
<rect x="24.166" y="82.5" width="219" height="129" rx="3.5" fill="#E2F1F5"/>
<rect x="24.166" y="82.5" width="219" height="129" rx="3.5" stroke="#18677A"/>
<g clip-path="url(#clip1_11798_37510)">
<path d="M97.0118 171.99H169.212C170.605 171.99 171.745 170.85 171.745 169.457C171.745 168.064 170.605 166.924 169.212 166.924H97.0118C95.6185 166.924 94.4785 168.064 94.4785 169.457C94.4785 170.85 95.6185 171.99 97.0118 171.99Z" fill="#5C5C5C"/>
</g>
<path d="M170.324 114.641H159.427C158.024 114.641 156.897 115.72 156.897 117.046C156.897 118.371 158.032 119.45 159.427 119.45H164.202L137.519 144.817L120.241 128.392C119.252 127.451 117.646 127.451 116.657 128.392L97.5954 146.528C96.6062 147.469 96.6062 148.995 97.5954 149.935C98.5846 150.876 100.19 150.876 101.179 149.935L118.457 133.51L135.735 149.935C136.23 150.406 136.878 150.637 137.527 150.637C138.176 150.637 138.824 150.406 139.319 149.935L167.794 122.865V127.405C167.794 128.738 168.929 129.81 170.324 129.81C171.718 129.81 172.854 128.731 172.854 127.405V117.046C172.854 115.712 171.718 114.641 170.324 114.641Z" fill="#5C5C5C"/>
<path d="M99.312 194.712H102.602V196H97.716V186.27H99.312V194.712ZM104.469 187.264C104.179 187.264 103.937 187.166 103.741 186.97C103.545 186.774 103.447 186.531 103.447 186.242C103.447 185.953 103.545 185.71 103.741 185.514C103.937 185.318 104.179 185.22 104.469 185.22C104.749 185.22 104.987 185.318 105.183 185.514C105.379 185.71 105.477 185.953 105.477 186.242C105.477 186.531 105.379 186.774 105.183 186.97C104.987 187.166 104.749 187.264 104.469 187.264ZM105.253 188.286V196H103.657V188.286H105.253ZM110.96 188.16C111.567 188.16 112.108 188.286 112.584 188.538C113.069 188.79 113.447 189.163 113.718 189.658C113.989 190.153 114.124 190.75 114.124 191.45V196H112.542V191.688C112.542 190.997 112.369 190.47 112.024 190.106C111.679 189.733 111.207 189.546 110.61 189.546C110.013 189.546 109.537 189.733 109.182 190.106C108.837 190.47 108.664 190.997 108.664 191.688V196H107.068V188.286H108.664V189.168C108.925 188.851 109.257 188.603 109.658 188.426C110.069 188.249 110.503 188.16 110.96 188.16ZM122.95 191.954C122.95 192.243 122.931 192.505 122.894 192.738H117C117.047 193.354 117.275 193.849 117.686 194.222C118.097 194.595 118.601 194.782 119.198 194.782C120.057 194.782 120.663 194.423 121.018 193.704H122.74C122.507 194.413 122.082 194.997 121.466 195.454C120.859 195.902 120.103 196.126 119.198 196.126C118.461 196.126 117.798 195.963 117.21 195.636C116.631 195.3 116.174 194.833 115.838 194.236C115.511 193.629 115.348 192.929 115.348 192.136C115.348 191.343 115.507 190.647 115.824 190.05C116.151 189.443 116.603 188.977 117.182 188.65C117.77 188.323 118.442 188.16 119.198 188.16C119.926 188.16 120.575 188.319 121.144 188.636C121.713 188.953 122.157 189.401 122.474 189.98C122.791 190.549 122.95 191.207 122.95 191.954ZM121.284 191.45C121.275 190.862 121.065 190.391 120.654 190.036C120.243 189.681 119.735 189.504 119.128 189.504C118.577 189.504 118.106 189.681 117.714 190.036C117.322 190.381 117.089 190.853 117.014 191.45H121.284ZM134.639 189.07C134.387 188.585 134.037 188.221 133.589 187.978C133.141 187.726 132.623 187.6 132.035 187.6C131.391 187.6 130.817 187.745 130.313 188.034C129.809 188.323 129.413 188.734 129.123 189.266C128.843 189.798 128.703 190.414 128.703 191.114C128.703 191.814 128.843 192.435 129.123 192.976C129.413 193.508 129.809 193.919 130.313 194.208C130.817 194.497 131.391 194.642 132.035 194.642C132.903 194.642 133.608 194.399 134.149 193.914C134.691 193.429 135.022 192.771 135.143 191.94H131.489V190.666H136.851V191.912C136.749 192.668 136.478 193.363 136.039 193.998C135.61 194.633 135.045 195.141 134.345 195.524C133.655 195.897 132.885 196.084 132.035 196.084C131.121 196.084 130.285 195.874 129.529 195.454C128.773 195.025 128.171 194.432 127.723 193.676C127.285 192.92 127.065 192.066 127.065 191.114C127.065 190.162 127.285 189.308 127.723 188.552C128.171 187.796 128.773 187.208 129.529 186.788C130.295 186.359 131.13 186.144 132.035 186.144C133.071 186.144 133.991 186.401 134.793 186.914C135.605 187.418 136.193 188.137 136.557 189.07H134.639ZM139.741 189.406C139.975 189.014 140.283 188.711 140.665 188.496C141.057 188.272 141.519 188.16 142.051 188.16V189.812H141.645C141.02 189.812 140.544 189.971 140.217 190.288C139.9 190.605 139.741 191.156 139.741 191.94V196H138.145V188.286H139.741V189.406ZM142.706 192.108C142.706 191.333 142.865 190.647 143.182 190.05C143.509 189.453 143.948 188.991 144.498 188.664C145.058 188.328 145.674 188.16 146.346 188.16C146.953 188.16 147.48 188.281 147.928 188.524C148.386 188.757 148.75 189.051 149.02 189.406V188.286H150.63V196H149.02V194.852C148.75 195.216 148.381 195.519 147.914 195.762C147.448 196.005 146.916 196.126 146.318 196.126C145.656 196.126 145.049 195.958 144.498 195.622C143.948 195.277 143.509 194.801 143.182 194.194C142.865 193.578 142.706 192.883 142.706 192.108ZM149.02 192.136C149.02 191.604 148.908 191.142 148.684 190.75C148.47 190.358 148.185 190.059 147.83 189.854C147.476 189.649 147.093 189.546 146.682 189.546C146.272 189.546 145.889 189.649 145.534 189.854C145.18 190.05 144.89 190.344 144.666 190.736C144.452 191.119 144.344 191.576 144.344 192.108C144.344 192.64 144.452 193.107 144.666 193.508C144.89 193.909 145.18 194.217 145.534 194.432C145.898 194.637 146.281 194.74 146.682 194.74C147.093 194.74 147.476 194.637 147.83 194.432C148.185 194.227 148.47 193.928 148.684 193.536C148.908 193.135 149.02 192.668 149.02 192.136ZM154.043 189.42C154.313 189.065 154.682 188.767 155.149 188.524C155.615 188.281 156.143 188.16 156.731 188.16C157.403 188.16 158.014 188.328 158.565 188.664C159.125 188.991 159.563 189.453 159.881 190.05C160.198 190.647 160.357 191.333 160.357 192.108C160.357 192.883 160.198 193.578 159.881 194.194C159.563 194.801 159.125 195.277 158.565 195.622C158.014 195.958 157.403 196.126 156.731 196.126C156.143 196.126 155.62 196.009 155.163 195.776C154.705 195.533 154.332 195.235 154.043 194.88V199.668H152.447V188.286H154.043V189.42ZM158.733 192.108C158.733 191.576 158.621 191.119 158.397 190.736C158.182 190.344 157.893 190.05 157.529 189.854C157.174 189.649 156.791 189.546 156.381 189.546C155.979 189.546 155.597 189.649 155.233 189.854C154.878 190.059 154.589 190.358 154.365 190.75C154.15 191.142 154.043 191.604 154.043 192.136C154.043 192.668 154.15 193.135 154.365 193.536C154.589 193.928 154.878 194.227 155.233 194.432C155.597 194.637 155.979 194.74 156.381 194.74C156.791 194.74 157.174 194.637 157.529 194.432C157.893 194.217 158.182 193.909 158.397 193.508C158.621 193.107 158.733 192.64 158.733 192.108ZM165.645 188.16C166.233 188.16 166.756 188.286 167.213 188.538C167.68 188.79 168.044 189.163 168.305 189.658C168.576 190.153 168.711 190.75 168.711 191.45V196H167.129V191.688C167.129 190.997 166.956 190.47 166.611 190.106C166.266 189.733 165.794 189.546 165.197 189.546C164.6 189.546 164.124 189.733 163.769 190.106C163.424 190.47 163.251 190.997 163.251 191.688V196H161.655V185.64H163.251V189.182C163.522 188.855 163.862 188.603 164.273 188.426C164.693 188.249 165.15 188.16 165.645 188.16Z" fill="#555555"/>
<rect x="252.166" y="82.5" width="219" height="129" rx="3.5" fill="#E2F1F5"/>
<rect x="252.166" y="82.5" width="219" height="129" rx="3.5" stroke="#18677A"/>
<g clip-path="url(#clip2_11798_37510)">
<path d="M395.437 137.955H395.377C393.824 137.633 392.295 138.637 391.972 140.191C390.324 148.296 385.63 155.266 378.737 159.833C371.845 164.4 363.603 166.002 355.504 164.352C347.405 162.702 340.441 158.004 335.878 151.106C331.315 144.22 329.714 135.959 331.363 127.854C333.835 115.684 343.296 106.203 355.468 103.717C356.233 103.561 356.89 103.119 357.32 102.473C357.75 101.828 357.905 101.051 357.75 100.286C357.594 99.5205 357.152 98.863 356.507 98.4326C355.862 98.0022 355.086 97.8468 354.309 98.0022C344.705 99.9748 336.451 105.558 331.052 113.747C325.665 121.924 323.778 131.715 325.737 141.327C329.284 158.685 344.61 170.676 361.668 170.676C364.104 170.676 366.565 170.437 369.038 169.923C383.42 166.97 394.636 155.768 397.599 141.398C397.766 140.645 397.634 139.868 397.216 139.223C396.81 138.577 396.165 138.123 395.413 137.955H395.437Z" fill="#5C5C5C"/>
<path d="M362.958 135.562H395.52C397.073 135.562 398.339 134.295 398.339 132.741C398.351 113.206 382.476 97.3184 362.958 97.3184C361.405 97.3184 360.139 98.5856 360.139 100.14V132.729C360.139 134.283 361.405 135.55 362.958 135.55V135.562ZM385.797 113.625C385.928 113.78 386.048 113.948 386.167 114.115L386.609 114.701C386.848 115.012 387.218 115.478 387.469 115.848C387.672 116.147 387.78 116.327 387.875 116.506L388.281 117.175C388.485 117.498 388.735 117.893 388.927 118.239C389.094 118.538 389.201 118.742 389.309 118.957L389.5 119.327C389.679 119.674 389.954 120.248 390.157 120.726C390.264 120.989 390.36 121.204 390.432 121.407L390.647 121.933C390.802 122.304 391.017 122.89 391.16 123.38L391.208 123.547C391.339 123.966 391.423 124.241 391.543 124.635C391.662 125.054 391.805 125.628 391.925 126.189C392.032 126.656 392.08 126.931 392.14 127.241L392.176 127.457C392.247 127.875 392.343 128.497 392.403 129.011C392.438 129.334 392.474 129.597 392.486 129.86H365.765V103.093L368.166 103.403L369.444 103.642L371.367 104.157C371.654 104.24 371.929 104.312 372.215 104.42C372.621 104.563 373.195 104.766 373.661 104.958L374.198 105.173C374.425 105.256 374.628 105.34 374.855 105.436C375.237 105.603 375.787 105.866 376.241 106.105C376.444 106.213 376.623 106.296 376.79 106.38C376.993 106.476 377.172 106.559 377.364 106.679C377.662 106.846 378.08 107.109 378.474 107.349L379.741 108.138C380.075 108.365 380.386 108.604 380.696 108.855L381.544 109.5C381.688 109.608 381.795 109.68 381.951 109.811C382.381 110.17 382.799 110.552 383.217 110.923L383.742 111.401C383.85 111.497 383.945 111.593 384.041 111.7L384.22 111.891C384.865 112.525 385.355 113.087 385.773 113.649L385.797 113.625Z" fill="#5C5C5C"/>
</g>
<path d="M338.02 187.852C338.02 188.346 337.903 188.813 337.67 189.252C337.437 189.69 337.063 190.05 336.55 190.33C336.037 190.6 335.379 190.736 334.576 190.736H332.812V194.684H331.216V184.954H334.576C335.323 184.954 335.953 185.084 336.466 185.346C336.989 185.598 337.376 185.943 337.628 186.382C337.889 186.82 338.02 187.31 338.02 187.852ZM334.576 189.434C335.183 189.434 335.635 189.298 335.934 189.028C336.233 188.748 336.382 188.356 336.382 187.852C336.382 186.788 335.78 186.256 334.576 186.256H332.812V189.434H334.576ZM340.074 185.948C339.785 185.948 339.542 185.85 339.346 185.654C339.15 185.458 339.052 185.215 339.052 184.926C339.052 184.636 339.15 184.394 339.346 184.198C339.542 184.002 339.785 183.904 340.074 183.904C340.354 183.904 340.592 184.002 340.788 184.198C340.984 184.394 341.082 184.636 341.082 184.926C341.082 185.215 340.984 185.458 340.788 185.654C340.592 185.85 340.354 185.948 340.074 185.948ZM340.858 186.97V194.684H339.262V186.97H340.858ZM349.744 190.638C349.744 190.927 349.725 191.188 349.688 191.422H343.794C343.84 192.038 344.069 192.532 344.48 192.906C344.89 193.279 345.394 193.466 345.992 193.466C346.85 193.466 347.457 193.106 347.812 192.388H349.534C349.3 193.097 348.876 193.68 348.26 194.138C347.653 194.586 346.897 194.81 345.992 194.81C345.254 194.81 344.592 194.646 344.004 194.32C343.425 193.984 342.968 193.517 342.632 192.92C342.305 192.313 342.142 191.613 342.142 190.82C342.142 190.026 342.3 189.331 342.618 188.734C342.944 188.127 343.397 187.66 343.976 187.334C344.564 187.007 345.236 186.844 345.992 186.844C346.72 186.844 347.368 187.002 347.938 187.32C348.507 187.637 348.95 188.085 349.268 188.664C349.585 189.233 349.744 189.891 349.744 190.638ZM348.078 190.134C348.068 189.546 347.858 189.074 347.448 188.72C347.037 188.365 346.528 188.188 345.922 188.188C345.371 188.188 344.9 188.365 344.508 188.72C344.116 189.065 343.882 189.536 343.808 190.134H348.078ZM353.859 189.798C353.859 188.846 354.078 187.992 354.517 187.236C354.965 186.48 355.567 185.892 356.323 185.472C357.088 185.042 357.924 184.828 358.829 184.828C359.865 184.828 360.784 185.084 361.587 185.598C362.399 186.102 362.987 186.82 363.351 187.754H361.433C361.181 187.24 360.831 186.858 360.383 186.606C359.935 186.354 359.417 186.228 358.829 186.228C358.185 186.228 357.611 186.372 357.107 186.662C356.603 186.951 356.206 187.366 355.917 187.908C355.637 188.449 355.497 189.079 355.497 189.798C355.497 190.516 355.637 191.146 355.917 191.688C356.206 192.229 356.603 192.649 357.107 192.948C357.611 193.237 358.185 193.382 358.829 193.382C359.417 193.382 359.935 193.256 360.383 193.004C360.831 192.752 361.181 192.369 361.433 191.856H363.351C362.987 192.789 362.399 193.508 361.587 194.012C360.784 194.516 359.865 194.768 358.829 194.768C357.914 194.768 357.079 194.558 356.323 194.138C355.567 193.708 354.965 193.116 354.517 192.36C354.078 191.604 353.859 190.75 353.859 189.798ZM368.929 186.844C369.517 186.844 370.04 186.97 370.497 187.222C370.964 187.474 371.328 187.847 371.589 188.342C371.86 188.836 371.995 189.434 371.995 190.134V194.684H370.413V190.372C370.413 189.681 370.24 189.154 369.895 188.79C369.55 188.416 369.078 188.23 368.481 188.23C367.884 188.23 367.408 188.416 367.053 188.79C366.708 189.154 366.535 189.681 366.535 190.372V194.684H364.939V184.324H366.535V187.866C366.806 187.539 367.146 187.287 367.557 187.11C367.977 186.932 368.434 186.844 368.929 186.844ZM373.219 190.792C373.219 190.017 373.378 189.331 373.695 188.734C374.022 188.136 374.46 187.674 375.011 187.348C375.571 187.012 376.187 186.844 376.859 186.844C377.466 186.844 377.993 186.965 378.441 187.208C378.898 187.441 379.262 187.735 379.533 188.09V186.97H381.143V194.684H379.533V193.536C379.262 193.9 378.894 194.203 378.427 194.446C377.96 194.688 377.428 194.81 376.831 194.81C376.168 194.81 375.562 194.642 375.011 194.306C374.46 193.96 374.022 193.484 373.695 192.878C373.378 192.262 373.219 191.566 373.219 190.792ZM379.533 190.82C379.533 190.288 379.421 189.826 379.197 189.434C378.982 189.042 378.698 188.743 378.343 188.538C377.988 188.332 377.606 188.23 377.195 188.23C376.784 188.23 376.402 188.332 376.047 188.538C375.692 188.734 375.403 189.028 375.179 189.42C374.964 189.802 374.857 190.26 374.857 190.792C374.857 191.324 374.964 191.79 375.179 192.192C375.403 192.593 375.692 192.901 376.047 193.116C376.411 193.321 376.794 193.424 377.195 193.424C377.606 193.424 377.988 193.321 378.343 193.116C378.698 192.91 378.982 192.612 379.197 192.22C379.421 191.818 379.533 191.352 379.533 190.82ZM384.555 188.09C384.788 187.698 385.096 187.394 385.479 187.18C385.871 186.956 386.333 186.844 386.865 186.844V188.496H386.459C385.834 188.496 385.358 188.654 385.031 188.972C384.714 189.289 384.555 189.84 384.555 190.624V194.684H382.959V186.97H384.555V188.09ZM389.914 188.272V192.542C389.914 192.831 389.98 193.041 390.11 193.172C390.25 193.293 390.484 193.354 390.81 193.354H391.79V194.684H390.53C389.812 194.684 389.261 194.516 388.878 194.18C388.496 193.844 388.304 193.298 388.304 192.542V188.272H387.394V186.97H388.304V185.052H389.914V186.97H391.79V188.272H389.914Z" fill="#555555"/>
<rect x="24.166" y="220.5" width="219" height="129" rx="3.5" fill="#E2F1F5"/>
<rect x="24.166" y="220.5" width="219" height="129" rx="3.5" stroke="#18677A"/>
<path d="M106.43 292.265H160.897C165.089 292.265 168.497 288.857 168.497 284.665V241.598C168.497 237.405 165.089 233.998 160.897 233.998H149.497C145.304 233.998 141.897 237.405 141.897 241.598V246.665H127.963C123.771 246.665 120.363 250.072 120.363 254.265V261.865H106.43C102.237 261.865 98.8301 265.272 98.8301 269.465V284.665C98.8301 288.857 102.237 292.265 106.43 292.265ZM146.963 241.598C146.963 240.205 148.103 239.065 149.497 239.065H160.897C162.29 239.065 163.43 240.205 163.43 241.598V284.665C163.43 286.058 162.29 287.198 160.897 287.198H146.963V241.598ZM125.43 254.265C125.43 252.871 126.57 251.731 127.963 251.731H141.897V287.198H125.43V254.265ZM103.897 269.465C103.897 268.071 105.037 266.931 106.43 266.931H120.363V287.198H106.43C105.037 287.198 103.897 286.058 103.897 284.665V269.465Z" fill="#5C5C5C"/>
<path d="M97.5665 310.002H169.767C171.16 310.002 172.3 308.862 172.3 307.469C172.3 306.076 171.16 304.936 169.767 304.936H97.5665C96.1732 304.936 95.0332 306.076 95.0332 307.469C95.0332 308.862 96.1732 310.002 97.5665 310.002Z" fill="#5C5C5C"/>
<path d="M106.924 329.004C107.447 329.097 107.89 329.373 108.254 329.83C108.618 330.287 108.8 330.805 108.8 331.384C108.8 331.879 108.669 332.327 108.408 332.728C108.156 333.12 107.787 333.433 107.302 333.666C106.817 333.89 106.252 334.002 105.608 334.002H101.716V324.272H105.426C106.089 324.272 106.658 324.384 107.134 324.608C107.61 324.832 107.969 325.135 108.212 325.518C108.455 325.891 108.576 326.311 108.576 326.778C108.576 327.338 108.427 327.805 108.128 328.178C107.829 328.551 107.428 328.827 106.924 329.004ZM103.312 328.36H105.286C105.809 328.36 106.215 328.243 106.504 328.01C106.803 327.767 106.952 327.422 106.952 326.974C106.952 326.535 106.803 326.195 106.504 325.952C106.215 325.7 105.809 325.574 105.286 325.574H103.312V328.36ZM105.468 332.7C106.009 332.7 106.434 332.569 106.742 332.308C107.05 332.047 107.204 331.683 107.204 331.216C107.204 330.74 107.041 330.362 106.714 330.082C106.387 329.802 105.953 329.662 105.412 329.662H103.312V332.7H105.468ZM109.722 330.11C109.722 329.335 109.881 328.649 110.198 328.052C110.525 327.455 110.964 326.993 111.514 326.666C112.074 326.33 112.69 326.162 113.362 326.162C113.969 326.162 114.496 326.283 114.944 326.526C115.402 326.759 115.766 327.053 116.036 327.408V326.288H117.646V334.002H116.036V332.854C115.766 333.218 115.397 333.521 114.93 333.764C114.464 334.007 113.932 334.128 113.334 334.128C112.672 334.128 112.065 333.96 111.514 333.624C110.964 333.279 110.525 332.803 110.198 332.196C109.881 331.58 109.722 330.885 109.722 330.11ZM116.036 330.138C116.036 329.606 115.924 329.144 115.7 328.752C115.486 328.36 115.201 328.061 114.846 327.856C114.492 327.651 114.109 327.548 113.698 327.548C113.288 327.548 112.905 327.651 112.55 327.856C112.196 328.052 111.906 328.346 111.682 328.738C111.468 329.121 111.36 329.578 111.36 330.11C111.36 330.642 111.468 331.109 111.682 331.51C111.906 331.911 112.196 332.219 112.55 332.434C112.914 332.639 113.297 332.742 113.698 332.742C114.109 332.742 114.492 332.639 114.846 332.434C115.201 332.229 115.486 331.93 115.7 331.538C115.924 331.137 116.036 330.67 116.036 330.138ZM121.059 327.408C121.292 327.016 121.6 326.713 121.983 326.498C122.375 326.274 122.837 326.162 123.369 326.162V327.814H122.963C122.337 327.814 121.861 327.973 121.535 328.29C121.217 328.607 121.059 329.158 121.059 329.942V334.002H119.463V326.288H121.059V327.408ZM127.38 329.116C127.38 328.164 127.6 327.31 128.038 326.554C128.486 325.798 129.088 325.21 129.844 324.79C130.61 324.361 131.445 324.146 132.35 324.146C133.386 324.146 134.306 324.403 135.108 324.916C135.92 325.42 136.508 326.139 136.872 327.072H134.954C134.702 326.559 134.352 326.176 133.904 325.924C133.456 325.672 132.938 325.546 132.35 325.546C131.706 325.546 131.132 325.691 130.628 325.98C130.124 326.269 129.728 326.685 129.438 327.226C129.158 327.767 129.018 328.397 129.018 329.116C129.018 329.835 129.158 330.465 129.438 331.006C129.728 331.547 130.124 331.967 130.628 332.266C131.132 332.555 131.706 332.7 132.35 332.7C132.938 332.7 133.456 332.574 133.904 332.322C134.352 332.07 134.702 331.687 134.954 331.174H136.872C136.508 332.107 135.92 332.826 135.108 333.33C134.306 333.834 133.386 334.086 132.35 334.086C131.436 334.086 130.6 333.876 129.844 333.456C129.088 333.027 128.486 332.434 128.038 331.678C127.6 330.922 127.38 330.068 127.38 329.116ZM142.451 326.162C143.039 326.162 143.561 326.288 144.019 326.54C144.485 326.792 144.849 327.165 145.111 327.66C145.381 328.155 145.517 328.752 145.517 329.452V334.002H143.935V329.69C143.935 328.999 143.762 328.472 143.417 328.108C143.071 327.735 142.6 327.548 142.003 327.548C141.405 327.548 140.929 327.735 140.575 328.108C140.229 328.472 140.057 328.999 140.057 329.69V334.002H138.461V323.642H140.057V327.184C140.327 326.857 140.668 326.605 141.079 326.428C141.499 326.251 141.956 326.162 142.451 326.162ZM146.74 330.11C146.74 329.335 146.899 328.649 147.216 328.052C147.543 327.455 147.982 326.993 148.532 326.666C149.092 326.33 149.708 326.162 150.38 326.162C150.987 326.162 151.514 326.283 151.962 326.526C152.42 326.759 152.784 327.053 153.054 327.408V326.288H154.664V334.002H153.054V332.854C152.784 333.218 152.415 333.521 151.948 333.764C151.482 334.007 150.95 334.128 150.352 334.128C149.69 334.128 149.083 333.96 148.532 333.624C147.982 333.279 147.543 332.803 147.216 332.196C146.899 331.58 146.74 330.885 146.74 330.11ZM153.054 330.138C153.054 329.606 152.942 329.144 152.718 328.752C152.504 328.36 152.219 328.061 151.864 327.856C151.51 327.651 151.127 327.548 150.716 327.548C150.306 327.548 149.923 327.651 149.568 327.856C149.214 328.052 148.924 328.346 148.7 328.738C148.486 329.121 148.378 329.578 148.378 330.11C148.378 330.642 148.486 331.109 148.7 331.51C148.924 331.911 149.214 332.219 149.568 332.434C149.932 332.639 150.315 332.742 150.716 332.742C151.127 332.742 151.51 332.639 151.864 332.434C152.219 332.229 152.504 331.93 152.718 331.538C152.942 331.137 153.054 330.67 153.054 330.138ZM158.077 327.408C158.31 327.016 158.618 326.713 159.001 326.498C159.393 326.274 159.855 326.162 160.387 326.162V327.814H159.981C159.355 327.814 158.879 327.973 158.553 328.29C158.235 328.607 158.077 329.158 158.077 329.942V334.002H156.481V326.288H158.077V327.408ZM163.436 327.59V331.86C163.436 332.149 163.501 332.359 163.632 332.49C163.772 332.611 164.005 332.672 164.332 332.672H165.312V334.002H164.052C163.333 334.002 162.782 333.834 162.4 333.498C162.017 333.162 161.826 332.616 161.826 331.86V327.59H160.916V326.288H161.826V324.37H163.436V326.288H165.312V327.59H163.436Z" fill="#555555"/>
<g opacity="0.5">
<rect x="252.166" y="220.5" width="219" height="129" rx="3.5" fill="#F5F5F5"/>
<rect x="252.166" y="220.5" width="219" height="129" rx="3.5" stroke="#5C5C5C"/>
<g clip-path="url(#clip3_11798_37510)">
<path d="M341.399 244.765L341.399 299.232C341.399 303.424 344.807 306.832 348.999 306.832L392.066 306.832C396.259 306.832 399.666 303.424 399.666 299.232L399.666 287.832C399.666 283.639 396.259 280.232 392.066 280.232L386.999 280.232L386.999 266.298C386.999 262.106 383.592 258.698 379.399 258.698L371.799 258.698L371.799 244.765C371.799 240.572 368.392 237.165 364.199 237.165L348.999 237.165C344.807 237.165 341.399 240.572 341.399 244.765ZM392.066 285.298C393.459 285.298 394.599 286.438 394.599 287.832L394.599 299.232C394.599 300.625 393.459 301.765 392.066 301.765L348.999 301.765C347.606 301.765 346.466 300.625 346.466 299.232L346.466 285.298L392.066 285.298ZM379.399 263.765C380.793 263.765 381.933 264.905 381.933 266.298L381.933 280.232L346.466 280.232L346.466 263.765L379.399 263.765ZM364.199 242.232C365.593 242.232 366.733 243.372 366.733 244.765L366.733 258.698L346.466 258.698L346.466 244.765C346.466 243.372 347.606 242.232 348.999 242.232L364.199 242.232Z" fill="#5C5C5C"/>
<path d="M323.662 235.901L323.662 308.102C323.662 309.495 324.802 310.635 326.195 310.635C327.589 310.635 328.729 309.495 328.729 308.102L328.729 235.901C328.729 234.508 327.589 233.368 326.195 233.368C324.802 233.368 323.662 234.508 323.662 235.901Z" fill="#5C5C5C"/>
</g>
<path d="M325.422 334.732C324.769 334.732 324.181 334.62 323.658 334.396C323.135 334.162 322.725 333.836 322.426 333.416C322.127 332.996 321.978 332.506 321.978 331.946H323.686C323.723 332.366 323.887 332.711 324.176 332.982C324.475 333.252 324.89 333.388 325.422 333.388C325.973 333.388 326.402 333.257 326.71 332.996C327.018 332.725 327.172 332.38 327.172 331.96C327.172 331.633 327.074 331.367 326.878 331.162C326.691 330.956 326.453 330.798 326.164 330.686C325.884 330.574 325.492 330.452 324.988 330.322C324.353 330.154 323.835 329.986 323.434 329.818C323.042 329.64 322.706 329.37 322.426 329.006C322.146 328.642 322.006 328.156 322.006 327.55C322.006 326.99 322.146 326.5 322.426 326.08C322.706 325.66 323.098 325.338 323.602 325.114C324.106 324.89 324.689 324.778 325.352 324.778C326.295 324.778 327.065 325.016 327.662 325.492C328.269 325.958 328.605 326.602 328.67 327.424H326.906C326.878 327.069 326.71 326.766 326.402 326.514C326.094 326.262 325.688 326.136 325.184 326.136C324.727 326.136 324.353 326.252 324.064 326.486C323.775 326.719 323.63 327.055 323.63 327.494C323.63 327.792 323.719 328.04 323.896 328.236C324.083 328.422 324.316 328.572 324.596 328.684C324.876 328.796 325.259 328.917 325.744 329.048C326.388 329.225 326.911 329.402 327.312 329.58C327.723 329.757 328.068 330.032 328.348 330.406C328.637 330.77 328.782 331.26 328.782 331.876C328.782 332.37 328.647 332.837 328.376 333.276C328.115 333.714 327.727 334.069 327.214 334.34C326.71 334.601 326.113 334.732 325.422 334.732ZM332.247 328.222V332.492C332.247 332.781 332.313 332.991 332.443 333.122C332.583 333.243 332.817 333.304 333.143 333.304H334.123V334.634H332.863C332.145 334.634 331.594 334.466 331.211 334.13C330.829 333.794 330.637 333.248 330.637 332.492V328.222H329.727V326.92H330.637V325.002H332.247V326.92H334.123V328.222H332.247ZM334.782 330.742C334.782 329.967 334.941 329.281 335.258 328.684C335.585 328.086 336.024 327.624 336.574 327.298C337.134 326.962 337.75 326.794 338.422 326.794C339.029 326.794 339.556 326.915 340.004 327.158C340.462 327.391 340.826 327.685 341.096 328.04V326.92H342.706V334.634H341.096V333.486C340.826 333.85 340.457 334.153 339.99 334.396C339.524 334.638 338.992 334.76 338.394 334.76C337.732 334.76 337.125 334.592 336.574 334.256C336.024 333.91 335.585 333.434 335.258 332.828C334.941 332.212 334.782 331.516 334.782 330.742ZM341.096 330.77C341.096 330.238 340.984 329.776 340.76 329.384C340.546 328.992 340.261 328.693 339.906 328.488C339.552 328.282 339.169 328.18 338.758 328.18C338.348 328.18 337.965 328.282 337.61 328.488C337.256 328.684 336.966 328.978 336.742 329.37C336.528 329.752 336.42 330.21 336.42 330.742C336.42 331.274 336.528 331.74 336.742 332.142C336.966 332.543 337.256 332.851 337.61 333.066C337.974 333.271 338.357 333.374 338.758 333.374C339.169 333.374 339.552 333.271 339.906 333.066C340.261 332.86 340.546 332.562 340.76 332.17C340.984 331.768 341.096 331.302 341.096 330.77ZM343.99 330.77C343.99 329.976 344.149 329.281 344.466 328.684C344.793 328.077 345.241 327.61 345.81 327.284C346.38 326.957 347.033 326.794 347.771 326.794C348.704 326.794 349.474 327.018 350.081 327.466C350.697 327.904 351.112 328.534 351.327 329.356H349.605C349.465 328.973 349.24 328.674 348.933 328.46C348.625 328.245 348.237 328.138 347.771 328.138C347.117 328.138 346.595 328.371 346.202 328.838C345.82 329.295 345.629 329.939 345.629 330.77C345.629 331.6 345.82 332.249 346.202 332.716C346.595 333.182 347.117 333.416 347.771 333.416C348.695 333.416 349.306 333.01 349.605 332.198H351.327C351.103 332.982 350.682 333.607 350.067 334.074C349.451 334.531 348.685 334.76 347.771 334.76C347.033 334.76 346.38 334.596 345.81 334.27C345.241 333.934 344.793 333.467 344.466 332.87C344.149 332.263 343.99 331.563 343.99 330.77ZM355.689 330.784L359.245 334.634H357.089L354.233 331.316V334.634H352.637V324.274H354.233V330.294L357.033 326.92H359.245L355.689 330.784ZM362.934 329.748C362.934 328.796 363.153 327.942 363.592 327.186C364.04 326.43 364.642 325.842 365.398 325.422C366.163 324.992 366.998 324.778 367.904 324.778C368.94 324.778 369.859 325.034 370.662 325.548C371.474 326.052 372.062 326.77 372.426 327.704H370.508C370.256 327.19 369.906 326.808 369.458 326.556C369.01 326.304 368.492 326.178 367.904 326.178C367.26 326.178 366.686 326.322 366.182 326.612C365.678 326.901 365.281 327.316 364.992 327.858C364.712 328.399 364.572 329.029 364.572 329.748C364.572 330.466 364.712 331.096 364.992 331.638C365.281 332.179 365.678 332.599 366.182 332.898C366.686 333.187 367.26 333.332 367.904 333.332C368.492 333.332 369.01 333.206 369.458 332.954C369.906 332.702 370.256 332.319 370.508 331.806H372.426C372.062 332.739 371.474 333.458 370.662 333.962C369.859 334.466 368.94 334.718 367.904 334.718C366.989 334.718 366.154 334.508 365.398 334.088C364.642 333.658 364.04 333.066 363.592 332.31C363.153 331.554 362.934 330.7 362.934 329.748ZM378.004 326.794C378.592 326.794 379.114 326.92 379.572 327.172C380.038 327.424 380.402 327.797 380.664 328.292C380.934 328.786 381.07 329.384 381.07 330.084V334.634H379.488V330.322C379.488 329.631 379.315 329.104 378.97 328.74C378.624 328.366 378.153 328.18 377.556 328.18C376.958 328.18 376.482 328.366 376.128 328.74C375.782 329.104 375.61 329.631 375.61 330.322V334.634H374.014V324.274H375.61V327.816C375.88 327.489 376.221 327.237 376.632 327.06C377.052 326.882 377.509 326.794 378.004 326.794ZM382.294 330.742C382.294 329.967 382.452 329.281 382.77 328.684C383.096 328.086 383.535 327.624 384.086 327.298C384.646 326.962 385.262 326.794 385.934 326.794C386.54 326.794 387.068 326.915 387.516 327.158C387.973 327.391 388.337 327.685 388.608 328.04V326.92H390.218V334.634H388.608V333.486C388.337 333.85 387.968 334.153 387.502 334.396C387.035 334.638 386.503 334.76 385.906 334.76C385.243 334.76 384.636 334.592 384.086 334.256C383.535 333.91 383.096 333.434 382.77 332.828C382.452 332.212 382.294 331.516 382.294 330.742ZM388.608 330.77C388.608 330.238 388.496 329.776 388.272 329.384C388.057 328.992 387.772 328.693 387.418 328.488C387.063 328.282 386.68 328.18 386.27 328.18C385.859 328.18 385.476 328.282 385.122 328.488C384.767 328.684 384.478 328.978 384.254 329.37C384.039 329.752 383.932 330.21 383.932 330.742C383.932 331.274 384.039 331.74 384.254 332.142C384.478 332.543 384.767 332.851 385.122 333.066C385.486 333.271 385.868 333.374 386.27 333.374C386.68 333.374 387.063 333.271 387.418 333.066C387.772 332.86 388.057 332.562 388.272 332.17C388.496 331.768 388.608 331.302 388.608 330.77ZM393.63 328.04C393.863 327.648 394.171 327.344 394.554 327.13C394.946 326.906 395.408 326.794 395.94 326.794V328.446H395.534C394.909 328.446 394.433 328.604 394.106 328.922C393.789 329.239 393.63 329.79 393.63 330.574V334.634H392.034V326.92H393.63V328.04ZM398.989 328.222V332.492C398.989 332.781 399.054 332.991 399.185 333.122C399.325 333.243 399.558 333.304 399.885 333.304H400.865V334.634H399.605C398.886 334.634 398.336 334.466 397.953 334.13C397.57 333.794 397.379 333.248 397.379 332.492V328.222H396.469V326.92H397.379V325.002H398.989V326.92H400.865V328.222H398.989Z" fill="#555555"/>
</g>
<rect width="435" height="86" transform="translate(30.5 320.5)" fill="url(#paint1_linear_11798_37510)"/>
</g>
<rect x="7" y="7" width="481.333" height="398" rx="9" stroke="#18677A" stroke-width="2"/>
</g>
<defs>
<filter id="filter0_dd_11798_37510" x="0" y="0" width="495.334" height="412" filterUnits="userSpaceOnUse" color-interpolation-filters="sRGB">
<feFlood flood-opacity="0" result="BackgroundImageFix"/>
<feColorMatrix in="SourceAlpha" type="matrix" values="0 0 0 0 0 0 0 0 0 0 0 0 0 0 0 0 0 0 127 0" result="hardAlpha"/>
<feOffset dx="2" dy="2"/>
<feGaussianBlur stdDeviation="2"/>
<feComposite in2="hardAlpha" operator="out"/>
<feColorMatrix type="matrix" values="0 0 0 0 0.0941176 0 0 0 0 0.403922 0 0 0 0 0.478431 0 0 0 0.25 0"/>
<feBlend mode="normal" in2="BackgroundImageFix" result="effect1_dropShadow_11798_37510"/>
<feColorMatrix in="SourceAlpha" type="matrix" values="0 0 0 0 0 0 0 0 0 0 0 0 0 0 0 0 0 0 127 0" result="hardAlpha"/>
<feOffset dx="-2" dy="-2"/>
<feGaussianBlur stdDeviation="2"/>
<feComposite in2="hardAlpha" operator="out"/>
<feColorMatrix type="matrix" values="0 0 0 0 0.0941176 0 0 0 0 0.403922 0 0 0 0 0.478431 0 0 0 0.25 0"/>
<feBlend mode="normal" in2="effect1_dropShadow_11798_37510" result="effect2_dropShadow_11798_37510"/>
<feBlend mode="normal" in="SourceGraphic" in2="effect2_dropShadow_11798_37510" result="shape"/>
</filter>
<linearGradient id="paint0_linear_11798_37510" x1="242.5" y1="0" x2="242.5" y2="86" gradientUnits="userSpaceOnUse">
<stop stop-color="#F7FAFD" stop-opacity="0"/>
<stop offset="1" stop-color="#F7FAFD"/>
</linearGradient>
<linearGradient id="paint1_linear_11798_37510" x1="217.5" y1="0" x2="217.5" y2="86" gradientUnits="userSpaceOnUse">
<stop stop-color="#F7FAFD" stop-opacity="0"/>
<stop offset="1" stop-color="#F7FAFD"/>
</linearGradient>
<clipPath id="clip0_11798_37510">
<rect x="6" y="6" width="483.333" height="400" rx="10" fill="white"/>
</clipPath>
<clipPath id="clip1_11798_37510">
<rect width="77.2667" height="76" fill="white" transform="translate(94.4785 96)"/>
</clipPath>
<clipPath id="clip2_11798_37510">
<rect width="73.3672" height="73.3672" fill="white" transform="translate(324.982 97.3164)"/>
</clipPath>
<clipPath id="clip3_11798_37510">
<rect width="77.2667" height="76" fill="white" transform="translate(399.666 233.366) rotate(90)"/>
</clipPath>
</defs>
</svg>
