<svg width="19" height="19" viewBox="0 0 19 19" fill="none" xmlns="http://www.w3.org/2000/svg">
<g clip-path="url(#ca_histogram_download_clip0)">
<path d="M16.128 1C17.16 1 18 1.84 18 2.872V16.128C18 17.16 17.16 18 16.128 18H2.872C1.84 18 1 17.16 1 16.128V2.872C1 1.84 1.84 1 2.872 1H16.128ZM16.128 0H2.872C1.286 0 0 1.286 0 2.872V16.128C0 17.714 1.286 19 2.872 19H16.128C17.714 19 19 17.714 19 16.128V2.872C19 1.286 17.714 0 16.128 0Z" fill="#5C5C5C"/>
<path d="M5.9538 9.73504L5 10.6517L9.5 15L14 10.6517L13.0462 9.73504L10.1848 12.5085V4H8.81522V12.5085L5.9538 9.73504Z" fill="#5C5C5C"/>
</g>
<defs>
<clipPath id="ca_histogram_download_clip0">
<rect width="19" height="19" fill="white"/>
</clipPath>
</defs>
</svg>
